<svg id="Ebene_2" data-name="Ebene 2" xmlns="http://www.w3.org/2000/svg" xmlns:xlink="http://www.w3.org/1999/xlink" viewBox="0 0 464.28 270.09"><defs><style>.cls-1{fill:url(#Unbenannter_Verlauf_7);}.cls-2{fill:#b33a08;}.cls-3{fill:#104da5;}</style><linearGradient id="Unbenannter_Verlauf_7" x1="240.17" y1="127.23" x2="472.4" y2="127.23" gradientUnits="userSpaceOnUse"><stop offset="0.04" stop-color="#ff7300"/><stop offset="0.1" stop-color="#f97c01"/><stop offset="0.21" stop-color="#ea9602"/><stop offset="0.24" stop-color="#e59e03"/><stop offset="0.66" stop-color="#fea605"/><stop offset="1" stop-color="#e5c500"/></linearGradient></defs><path class="cls-1" d="M472.4,16.68a2.83,2.83,0,0,1-2.83,2.83,11.34,11.34,0,0,0-11.34,11.34V124.4a14.17,14.17,0,0,1-14.17,14.17H376a2.83,2.83,0,0,0-2.83,2.83v68A25.52,25.52,0,0,0,398.71,235a2.83,2.83,0,0,1,2.83,2.83h0a2.83,2.83,0,0,1-2.83,2.83H319.33a2.83,2.83,0,0,1-2.83-2.83h0a2.83,2.83,0,0,1,2.83-2.83,25.5,25.5,0,0,0,25.51-25.51v-68a2.83,2.83,0,0,0-2.83-2.83H274A14.17,14.17,0,0,1,259.8,124.4V36.31A16.8,16.8,0,0,0,243,19.51a2.79,2.79,0,0,1-2-.83,2.83,2.83,0,0,1,2-4.83h42.32a2.83,2.83,0,0,1,2.83,2.83V124.4a2.83,2.83,0,0,0,2.83,2.83h51a2.83,2.83,0,0,0,2.83-2.83V45a25.51,25.51,0,0,0-25.51-25.51,2.79,2.79,0,0,1-2-.83,2.83,2.83,0,0,1,2-4.83h79.38a2.83,2.83,0,0,1,2,4.83,2.79,2.79,0,0,1-2,.83A25.54,25.54,0,0,0,373.19,45V124.4a2.83,2.83,0,0,0,2.83,2.83h51a2.83,2.83,0,0,0,2.83-2.83V16.68a2.83,2.83,0,0,1,2.83-2.83h36.86A2.83,2.83,0,0,1,472.4,16.68Z" transform="translate(-8.12 -13.85)"/><path class="cls-2" d="M45.91,173.41v41.06q0,12.92,3.46,17.06T65.2,237.7c2.15.38,3.27,1.16,3.34,2.36q.12,2.24-2.67,2.13l-6-.45q-3.68-.33-13.27-.34l-8.92-.11-7.91.23c-3.13,0-5.17,0-6.14.11q-5.91.56-6.69.56-3.68,0-3.68-2.63c0-1.17,1.08-1.86,3.24-2.08q6.91-.67,9.64-6.64t2.73-20v-95.6q0-12-2.56-16.81c-1.71-3.19-5-5.3-9.81-6.36L11,90.93c-1.93-.44-2.89-1.2-2.89-2.3,0-1.53,1-2.3,3-2.3a27.18,27.18,0,0,1,4,.37A151.23,151.23,0,0,0,33,87.45l4.12-.11,8.37-.22q3.35,0,5.79-.12c3-.29,4.76-.45,5.35-.45,1.79-.07,2.68.63,2.68,2.09,0,1-.89,1.9-2.68,2.63q-7,3-8.86,6.9t-1.84,15.32v43.76c0,1.57.33,2.35,1,2.35l1.78-1.23L50.36,157,98.2,113.9q11-9.86,11-15.8,0-5.14-8-6.61-5.13-.76-5.13-2.85c0-1.54,1.16-2.31,3.47-2.31.67,0,1.67.06,3,.18q4.69.34,10.51.34l10.28.27,8.38-.1a88.28,88.28,0,0,0,9.27-.3,28.59,28.59,0,0,1,3.46-.39c2,0,3.09.73,3.24,2.2.08,1.17-1.71,2.2-5.35,3.07q-10,2.59-38.46,28.33L65.75,154.66q-2.44,2.25-2.56,3.6-.11,1.68,2.67,4.72L124,224.11q9.26,9.76,20.18,12l4.9,1c1.71.37,2.57,1.1,2.57,2.19q0,2.74-3.45,2.52a20.93,20.93,0,0,1-2.67-.22,79,79,0,0,0-9.56-.34c-4.44,0-7.67.08-9.67.23-2.22.15-3.93.22-5.11.22a8.62,8.62,0,0,1-6.56-3l-1.9-2.13L52.83,174.53l-2.24-2.47a4,4,0,0,0-2.67-1.24C46.58,170.82,45.91,171.69,45.91,173.41Z" transform="translate(-8.12 -13.85)"/><path class="cls-2" d="M174.1,231.51V117.65q0-13.25-2.51-18.41T162,92.5L155.26,91q-3.34-.66-3.35-3,0-2.53,3.68-2.42c1.49.07,4.16.33,8,.78a184.49,184.49,0,0,0,18.95.68q11.27,0,14.05-.34c3.64-.52,5.76-.79,6.36-.79a1.86,1.86,0,0,1,2.11,2.09q0,2.08-3.12,2.85-6.24,1.57-8.47,5t-2.23,11.73V117l-.11,4.72v98.63l.11,5.39-1.45,14.81q-3.91,18.39-15.7,30.91t-25.2,12.51a12,12,0,0,1-6.54-1.73q-2.73-1.72-2.73-4.07a11,11,0,0,1,.45-2.68,34.21,34.21,0,0,0,1-4.13c1-4.68,2.42-7,4.3-7,.91,0,2.21,1,3.92,3,3,3.43,6.21,5.16,9.77,5.16q6.55,0,10.94-8.54t4.38-21.1Z" transform="translate(-8.12 -13.85)"/><path class="cls-3" d="M301.91,97.16a49.54,49.54,0,0,0-13.76-7.48,71.08,71.08,0,0,0-24.1-3.8c-1.26,0-2.67,0-4.25.1-2.13.1-4.54.25-7.23.47q-13.6,1.23-20.74,1.23a84.87,84.87,0,0,1-11.59-1,39.25,39.25,0,0,0-5.69-.56q-4.23,0-4.35,2.64c-.07,1.38.89,2.14,2.9,2.3Q224.25,92.28,227,98.5t2.79,29.77v68.06q0,22.2-3.18,30.72t-11.88,9.87q-3.68.54-3.68,2.63c0,1.46,1,2.19,2.9,2.19a54.31,54.31,0,0,0,6.36-.56,80.59,80.59,0,0,1,9.92-.45l8.7-.11,7.91.23c5.36,0,9.22.07,11.6.22q5.56.45,7.47.45,4.13,0,3.9-2.85c-.07-1.32-1.22-2-3.46-2a38.61,38.61,0,0,1-9.25-1.68q-8.8-2.25-10-15.83l-.34-9.44.11-10.89V105.19l.12-3.25q0-4.72,1.66-6.4t6.12-1.69c1.71,0,3.39.06,5,.19q16.13,1.29,27.14,10.95c.41.36.82.73,1.21,1.11a35.28,35.28,0,0,1,11.06,21.13h17.24c0-.2,0-.41,0-.61Q316.46,108.44,301.91,97.16ZM290,156.77q-9.63,8.89-25.64,8.9a30.88,30.88,0,0,1-8.23-.79,9.68,9.68,0,0,0-2.23-.34c-1.26,0-2,.45-2.11,1.34-.15,1.18,1.73,2.27,5.63,3.3a50.83,50.83,0,0,0,12.88,1.53q14.94,0,28.32-9.42,12.67-9,16.34-22.72h-15.7A29.28,29.28,0,0,1,290,156.77Z" transform="translate(-8.12 -13.85)"/></svg>