<svg id="Ebene_2" data-name="Ebene 2" xmlns="http://www.w3.org/2000/svg" xmlns:xlink="http://www.w3.org/1999/xlink" viewBox="0 0 232.23 226.77"><defs><style>.cls-1{fill:url(#Unbenannter_Verlauf_7);}</style><linearGradient id="Unbenannter_Verlauf_7" x1="240.17" y1="127.23" x2="472.4" y2="127.23" gradientUnits="userSpaceOnUse"><stop offset="0.04" stop-color="#ff7300"/><stop offset="0.1" stop-color="#f97c01"/><stop offset="0.21" stop-color="#ea9602"/><stop offset="0.24" stop-color="#e59e03"/><stop offset="0.66" stop-color="#fea605"/><stop offset="1" stop-color="#e5c500"/></linearGradient></defs><path class="cls-1" d="M472.4,16.68a2.83,2.83,0,0,1-2.83,2.83,11.34,11.34,0,0,0-11.34,11.34V124.4a14.17,14.17,0,0,1-14.17,14.17H376a2.83,2.83,0,0,0-2.83,2.83v68A25.52,25.52,0,0,0,398.71,235a2.83,2.83,0,0,1,2.83,2.83h0a2.83,2.83,0,0,1-2.83,2.83H319.33a2.83,2.83,0,0,1-2.83-2.83h0a2.83,2.83,0,0,1,2.83-2.83,25.5,25.5,0,0,0,25.51-25.51v-68a2.83,2.83,0,0,0-2.83-2.83H274A14.17,14.17,0,0,1,259.8,124.4V36.31A16.8,16.8,0,0,0,243,19.51a2.79,2.79,0,0,1-2-.83,2.83,2.83,0,0,1,2-4.83h42.32a2.83,2.83,0,0,1,2.83,2.83V124.4a2.83,2.83,0,0,0,2.83,2.83h51a2.83,2.83,0,0,0,2.83-2.83V45a25.51,25.51,0,0,0-25.51-25.51,2.79,2.79,0,0,1-2-.83,2.83,2.83,0,0,1,2-4.83h79.38a2.83,2.83,0,0,1,2,4.83,2.79,2.79,0,0,1-2,.83A25.54,25.54,0,0,0,373.19,45V124.4a2.83,2.83,0,0,0,2.83,2.83h51a2.83,2.83,0,0,0,2.83-2.83V16.68a2.83,2.83,0,0,1,2.83-2.83h36.86A2.83,2.83,0,0,1,472.4,16.68Z" transform="translate(-240.17 -13.85)"/></svg>